<svg width="791" height="170" viewBox="0 0 791 170" fill="none" xmlns="http://www.w3.org/2000/svg">
<path d="M192.91 168.55V0.799988H327.83L313.62 40.1H238.92V65.74H319.44L306.27 102.4H238.92V129H329.03L315.23 168.54H192.91V168.55Z" fill="#0070C0"/>
<path d="M654.6 168.55V0.799988H789.52L775.31 40.1H700.61V65.74H781.13L767.96 102.4H700.61V129H790.72L776.92 168.54H654.6V168.55Z" fill="#0070C0"/>
<path d="M648.52 0.790009V168.54H608.01L565.05 113.56L536.12 76.51V168.54H490.12V0.790009H533.49L582.79 64.1L602.49 89.46V0.790009H648.52Z" fill="#0070C0"/>
<path d="M446.72 110.07C469.73 100.33 481.23 83.07 481.23 58.31V57.83C481.23 41.7 476.28 28.67 466.37 18.77C454.39 6.78999 436.18 0.799988 411.73 0.799988H332.41V168.55H378.9V129.65L378.71 117.8L378.9 40.82H409.57C417.39 40.82 423.55 42.54 428.02 45.97C432.49 49.41 434.73 54.4 434.73 60.95V61.43C434.73 67.5 432.53 72.33 428.14 75.93C423.74 79.52 417.63 81.32 409.81 81.32H378.8L378.71 117.75H399.51L433.3 168.55H486.74L446.72 110.08V110.07Z" fill="#0070C0"/>
<path d="M189.53 0.790009L121.25 169.08H68.32V169.06H68.27V169.08L0 0.790009H50.96L79.88 74.69C82.35 81.02 83.02 87.92 81.81 94.61L71.63 150.62C71.63 150.62 71.29 152.66 72.98 152.97C74.53 153.25 75.43 151.89 75.69 151.41C75.72 151.35 75.75 151.3 75.76 151.27L138.56 0.790009H189.53Z" fill="#0070C0"/>
</svg>
